<svg width="128" height="128" viewBox="0 0 128 128" fill="none" xmlns="http://www.w3.org/2000/svg">
<path d="M54.2 1.90001C45.2 5.00001 41.8 9.20001 31.7 30C24.6 44.7 22.7 49.4 22.8 52.7C22.8 57.6 25.8 63 29.5 65C30.9 65.7 32 66.7 32 67.1C32 67.5 28.7 69.9 24.6 72.5C15.1 78.4 8.80003 85.1 6.70003 91.6C4.20003 99.2 1.10003 125.8 2.60003 127C3.30003 127.7 13.6 127.9 29.6 127.8C54.7 127.5 55.5 127.4 55.5 125.5C55.5 123.6 54.7 123.5 44.8 123.2L34.1 122.9L33.8 113.7C33.5 105.3 33.3 104.5 31.5 104.5C29.7 104.5 29.5 105.3 29.2 113.7L28.9 123H18C8.20003 123 7.00003 122.8 7.00003 121.2C7.00003 120.3 7.90003 113.5 9.00003 106.2C11.6 88.2 13.6 85.3 29.8 75L38.1 69.8L48.3 74.6C62.3 81.2 65.9 81.2 79.7 74.6L89.8 69.7L97.7 74.6C108.7 81.5 114.6 87.2 116.4 92.8C117.7 96.8 121 117.7 121 121.7C121 122.7 118.3 123 110 123H99.1L98.8 113.7C98.5 105.3 98.3 104.5 96.5 104.5C94.7 104.5 94.5 105.3 94.2 113.7L93.9 122.9L84.2 123.2C75.3 123.5 74.5 123.7 74.5 125.5C74.5 127.4 75.3 127.5 99.4 127.8C114.7 127.9 124.7 127.7 125.4 127C127 125.7 123.5 97.5 120.9 90.5C118.6 84.2 112.9 78.3 103.3 72.3L96 67.6L99.9 63.8C104.2 59.7 106.6 53.5 105.4 49.7C105 48.5 100.8 39.4 96 29.5C88.9 14.7 86.5 10.7 82.8 7.30001C75.1 0.30001 64.6 -1.69999 54.2 1.90001ZM72.1 6.50001C78.4 8.70001 82.6 13.3 87.6 23.2L92 31.9L84.7 28C75.2 22.9 66.4 21.2 57.4 22.9C51 24 39.8 28.9 38.5 31C38.2 31.5 37.5 32 36.9 32C35.3 32 44.7 14.6 48.2 11.3C54.3 5.40001 63.6 3.50001 72.1 6.50001ZM75.5 29.2L79.5 30.5V42.1C79.5 53.2 79.4 53.8 76.8 57.2C71.5 64.1 62.2 65.6 55 60.7C49.4 57 48 52.9 48 41.3C48 34.9 48.4 30.9 49.1 30.4C54.5 27.1 67.6 26.5 75.5 29.2ZM45.9 58.3C50.9 66.4 60.2 70.4 68.7 68.1C74.5 66.6 79.1 63.3 82.1 58.3C84 55.3 84.5 52.7 85 44.3L85.5 34L89.3 37.1C91.4 38.8 94.6 42.2 96.5 44.7C100.5 49.9 101.1 55 98.2 58.7C96 61.5 67.9 75 64.2 75C60.5 75 31.9 61.5 29.8 58.7C25.6 53.4 28.7 45.7 38.1 37.6L42.5 33.9L43 44.2C43.5 52.7 44 55.3 45.9 58.3Z" fill="#DCDCAA"/>
<path d="M58.6 33.1C56.5 34.7 56 35.9 56.2 38.4C56.6 42.3 59 42.5 60.8 38.7C62.3 35.5 65.5 35.1 67 37.9C68.1 40.1 66.1 43 63.4 43C62.4 43 62 44.2 62 46.9C62 51.5 64.3 53.1 66.1 49.7C66.8 48.5 67.9 47.1 68.7 46.6C69.5 46.2 70.8 44.3 71.6 42.4C75 34.3 65.7 27.6 58.6 33.1Z" fill="#DCDCAA"/>
<path d="M63.3 54.7C62.6 55 62 56 62 57.1C62 59.4 65.5 59.7 66.3 57.6C67 55.9 65 54.1 63.3 54.7Z" fill="#DCDCAA"/>
<path d="M63.4 124.5C62.7 126.3 63.7 128 65.5 128C67 128 67.9 126.1 67.3 124.2C66.7 122.5 64.1 122.7 63.4 124.5Z" fill="#DCDCAA"/>
</svg>
