<svg width="98" height="128" viewBox="0 0 98 128" fill="none" xmlns="http://www.w3.org/2000/svg">
<path d="M59.9308 51.1039C59.9308 48.5493 61.9736 46.448 64.5495 46.448C67.083 46.448 69.1201 48.5493 69.1201 51.1039C69.1201 53.6638 67.0773 55.7438 64.5495 55.7438C61.9733 55.7387 59.9308 53.6641 59.9308 51.1039ZM45.5893 11.5147H45.5521V17.8828H51.4027V11.7066C53.4134 10.6881 54.7946 8.60784 54.7946 6.19194C54.7786 2.76256 52.0374 0 48.6613 0C45.2587 0 42.512 2.76256 42.512 6.18658C42.512 8.47988 43.7548 10.4479 45.5893 11.5147ZM32.8106 55.7387C35.3547 55.7387 37.424 53.6587 37.424 51.0988C37.424 48.5442 35.3547 46.4429 32.8106 46.4429C30.2614 46.4429 28.1919 48.5442 28.1919 51.0988C28.1921 53.6641 30.256 55.7387 32.8106 55.7387ZM48.6613 128C55.5894 128 61.4773 123.52 63.7333 117.344H33.6C35.8293 123.52 41.7282 128 48.6613 128ZM0.645508 109.125C0.645508 106.656 2.06962 104.533 4.13351 103.552V77.216C4.13351 72.0054 8.14404 67.7652 13.2055 67.4081V54.688C13.2055 54.688 14.4428 31.4828 33.6107 24.2452C39.2959 22.112 44.4854 21.2479 48.9973 21.0771C53.5092 21.253 58.7147 22.1117 64.3838 24.2506C83.5518 31.4613 84.7786 54.6931 84.7786 54.6931V67.4718C89.8612 67.7813 93.8613 72.0212 93.8613 77.2318V103.552C95.9148 104.533 97.3547 106.661 97.3547 109.136C97.3547 112.549 94.6026 115.301 91.2214 115.301C87.8295 115.301 85.0827 112.544 85.0827 109.136C85.0827 106.661 86.5014 104.544 88.5546 103.552V85.9839C87.4028 86.5439 86.1334 86.912 84.7893 87.0132V93.1197C84.8319 93.6265 84.8747 94.1171 84.8747 94.6132C84.8747 95.1571 84.8321 95.6585 84.7893 96.2239V96.3732H84.7679C83.9678 106.528 76.0265 114.731 66.0106 115.845L66.0213 115.968H48.9973H31.9518L31.9572 115.845C21.9413 114.72 14.0372 106.571 13.2053 96.3732H13.1945V96.2239C13.1466 95.6638 13.1199 95.1571 13.1199 94.6132C13.1199 94.1225 13.1624 93.6372 13.1945 93.1197V87.0132C11.8505 86.9066 10.5599 86.5439 9.42386 85.9839V103.552C11.4824 104.533 12.9226 106.661 12.9226 109.136C12.9226 112.549 10.1654 115.301 6.7732 115.301C3.38665 115.301 0.645508 112.538 0.645508 109.125ZM59.2214 76.736C59.2214 75.0828 57.8934 73.7387 56.272 73.7387C54.6346 73.7387 53.3387 75.0828 53.3387 76.736C53.3387 78.3735 54.6346 79.7119 56.272 79.7119C57.9041 79.7066 59.2214 78.3679 59.2214 76.736ZM66.5066 76.736C66.5066 75.0828 65.1679 73.7387 63.5465 73.7387C61.9305 73.7387 60.6078 75.0828 60.6078 76.736C60.6078 78.3735 61.9358 79.7119 63.5465 79.7119C65.1628 79.7066 66.5066 78.3679 66.5066 76.736ZM73.8186 76.736C73.8186 75.0828 72.4852 73.7387 70.8426 73.7387C69.2159 73.7387 67.8774 75.0828 67.8774 76.736C67.8774 78.3735 69.2162 79.7119 70.8426 79.7119C72.4855 79.7066 73.8186 78.3679 73.8186 76.736ZM24.1067 51.9519C24.1067 59.8614 30.2453 60.3732 30.2453 60.3732C32.3732 61.0612 36.9065 60.7359 38.9386 60.3732C40.8212 60.0638 47.7279 59.4665 48.8158 59.3704C48.8637 59.3704 48.933 59.3758 48.9866 59.3758C49.0452 59.3758 49.1145 59.3704 49.1413 59.3704C50.256 59.4612 57.1412 60.0638 59.0185 60.3732C61.0824 60.7359 65.5999 61.0612 67.7278 60.3732C67.7278 60.3732 73.8611 59.8825 73.8611 51.9519C73.8611 51.9519 73.8611 43.1733 67.7278 37.8292C61.7704 32.6772 52.7945 31.5465 49.3172 31.4932C49.2585 31.4932 49.1946 31.4932 49.1359 31.4932C49.0934 31.4932 49.0294 31.4932 48.9812 31.4932C48.9279 31.4932 48.864 31.4932 48.8053 31.4932C48.7467 31.4932 48.6934 31.4932 48.6506 31.4932C45.1626 31.5465 36.1867 32.6825 30.2293 37.8292C24.1067 43.1733 24.1067 51.9519 24.1067 51.9519Z" fill="#DCDCAA"/>
</svg>
